<svg width="795" height="331" viewBox="0 0 795 331" fill="none" xmlns="http://www.w3.org/2000/svg">
<path d="M275.307 197.232V110.774H296.21V145.476H330.288V110.774H351.149V197.232H330.288V162.489H296.21V197.232H275.307Z" fill="white"/>
<path d="M394.581 198.457C387.796 198.457 381.94 197.12 377.014 194.446C372.115 191.744 368.343 187.903 365.696 182.921C363.078 177.912 361.769 171.959 361.769 165.064C361.769 158.366 363.092 152.512 365.739 147.502C368.385 142.464 372.115 138.552 376.929 135.766C381.743 132.952 387.416 131.545 393.947 131.545C398.564 131.545 402.787 132.262 406.616 133.698C410.444 135.133 413.752 137.258 416.539 140.072C419.326 142.887 421.494 146.362 423.042 150.499C424.591 154.609 425.365 159.323 425.365 164.642V169.792H368.99V157.803H406.151C406.123 155.608 405.602 153.652 404.589 151.935C403.575 150.218 402.182 148.881 400.408 147.924C398.663 146.939 396.65 146.447 394.369 146.447C392.061 146.447 389.992 146.967 388.162 148.009C386.332 149.022 384.882 150.415 383.812 152.188C382.743 153.933 382.179 155.917 382.123 158.141V170.341C382.123 172.986 382.644 175.308 383.686 177.307C384.727 179.277 386.205 180.81 388.12 181.908C390.034 183.006 392.314 183.554 394.961 183.554C396.79 183.554 398.451 183.301 399.944 182.795C401.436 182.288 402.717 181.542 403.786 180.557C404.856 179.572 405.658 178.362 406.193 176.927L425.154 177.475C424.366 181.725 422.634 185.426 419.96 188.578C417.313 191.702 413.837 194.137 409.529 195.882C405.222 197.598 400.239 198.457 394.581 198.457Z" fill="white"/>
<path d="M456.561 110.774V197.232H435.912V110.774H456.561Z" fill="white"/>
<path d="M490.354 110.774V197.232H469.705V110.774H490.354Z" fill="white"/>
<path d="M533.776 198.457C526.963 198.457 521.107 197.064 516.209 194.277C511.338 191.463 507.58 187.551 504.934 182.541C502.316 177.504 501.006 171.664 501.006 165.022C501.006 158.352 502.316 152.512 504.934 147.502C507.58 142.464 511.338 138.552 516.209 135.766C521.107 132.952 526.963 131.545 533.776 131.545C540.588 131.545 546.43 132.952 551.3 135.766C556.199 138.552 559.957 142.464 562.575 147.502C565.222 152.512 566.545 158.352 566.545 165.022C566.545 171.664 565.222 177.504 562.575 182.541C559.957 187.551 556.199 191.463 551.3 194.277C546.43 197.064 540.588 198.457 533.776 198.457ZM533.902 182.879C536.38 182.879 538.477 182.119 540.194 180.599C541.912 179.08 543.221 176.969 544.122 174.267C545.051 171.565 545.515 168.441 545.515 164.895C545.515 161.293 545.051 158.141 544.122 155.439C543.221 152.737 541.912 150.626 540.194 149.106C538.477 147.587 536.38 146.827 533.902 146.827C531.34 146.827 529.173 147.587 527.399 149.106C525.654 150.626 524.317 152.737 523.387 155.439C522.487 158.141 522.036 161.293 522.036 164.895C522.036 168.441 522.487 171.565 523.387 174.267C524.317 176.969 525.654 179.08 527.399 180.599C529.173 182.119 531.34 182.879 533.902 182.879Z" fill="white"/>
<path d="M587.385 197.232H573.534L604.656 110.774H619.731L650.854 197.232H637.003L612.553 126.479H611.877L587.385 197.232ZM589.707 163.375H634.638V174.351H589.707V163.375Z" fill="white"/>
<path d="M662.329 221.549V132.389H674.66V142.901H675.716C676.448 141.55 677.503 139.988 678.883 138.215C680.262 136.442 682.177 134.894 684.626 133.571C687.075 132.22 690.313 131.545 694.338 131.545C699.575 131.545 704.248 132.867 708.358 135.513C712.468 138.158 715.692 141.972 718.028 146.953C720.393 151.935 721.576 157.929 721.576 164.937C721.576 171.945 720.407 177.954 718.071 182.963C715.734 187.945 712.525 191.787 708.443 194.488C704.36 197.162 699.701 198.499 694.465 198.499C690.524 198.499 687.3 197.838 684.795 196.515C682.317 195.192 680.375 193.644 678.967 191.871C677.56 190.098 676.476 188.522 675.716 187.143H674.955V221.549H662.329ZM674.702 164.811C674.702 169.37 675.364 173.366 676.687 176.8C678.01 180.234 679.924 182.921 682.43 184.863C684.935 186.777 688.004 187.734 691.636 187.734C695.408 187.734 698.561 186.735 701.095 184.737C703.629 182.71 705.543 179.966 706.838 176.504C708.161 173.043 708.823 169.145 708.823 164.811C708.823 160.533 708.175 156.691 706.88 153.286C705.613 149.88 703.699 147.193 701.137 145.223C698.603 143.252 695.436 142.267 691.636 142.267C687.976 142.267 684.879 143.21 682.345 145.096C679.84 146.982 677.94 149.613 676.645 152.99C675.35 156.367 674.702 160.308 674.702 164.811Z" fill="white"/>
<path d="M735.722 221.549V132.389H748.053V142.901H749.108C749.84 141.55 750.896 139.988 752.276 138.215C753.655 136.442 755.569 134.894 758.019 133.571C760.468 132.22 763.705 131.545 767.731 131.545C772.967 131.545 777.641 132.867 781.751 135.513C785.861 138.158 789.085 141.972 791.421 146.953C793.786 151.935 794.968 157.929 794.968 164.937C794.968 171.945 793.8 177.954 791.463 182.963C789.127 187.945 785.917 191.787 781.835 194.488C777.753 197.162 773.094 198.499 767.858 198.499C763.916 198.499 760.693 197.838 758.188 196.515C755.71 195.192 753.768 193.644 752.36 191.871C750.952 190.098 749.869 188.522 749.108 187.143H748.348V221.549H735.722ZM748.095 164.811C748.095 169.37 748.757 173.366 750.08 176.8C751.403 180.234 753.317 182.921 755.823 184.863C758.328 186.777 761.397 187.734 765.028 187.734C768.801 187.734 771.954 186.735 774.488 184.737C777.021 182.71 778.936 179.966 780.231 176.504C781.554 173.043 782.215 169.145 782.215 164.811C782.215 160.533 781.568 156.691 780.273 153.286C779.006 149.88 777.092 147.193 774.53 145.223C771.996 143.252 768.829 142.267 765.028 142.267C761.369 142.267 758.272 143.21 755.738 145.096C753.233 146.982 751.332 149.613 750.037 152.99C748.742 156.367 748.095 160.308 748.095 164.811Z" fill="white"/>
<path fill-rule="evenodd" clip-rule="evenodd" d="M169.64 0C223.516 0 271.204 23.6618 301.418 60.4287L263.923 60.0647C239.533 38.587 206.043 25.482 169.64 25.482C93.9221 25.482 32.4013 82.2704 32.4013 152.528C32.4013 170.365 36.4056 187.475 43.6862 202.764C48.4186 213.321 55.3351 223.513 62.9797 232.25C54.243 254.092 44.4143 278.482 41.8661 285.034C36.0416 299.959 40.774 295.955 50.9668 292.315L62.6157 288.31L116.856 269.381C130.325 274.841 145.25 278.118 160.903 278.846C164.908 279.21 169.276 279.21 173.644 279.21C208.955 278.118 241.354 265.013 265.015 243.535H302.146C271.932 280.666 223.88 304.692 169.64 304.692C151.803 304.692 134.693 302.143 118.676 297.411L20.3884 329.81C-6.91373 336.726 1.09489 311.244 1.09489 311.244C1.09489 311.244 17.1121 269.381 30.9452 234.798C14.1999 211.136 4.73517 182.742 4.73517 152.528C4.73517 68.0733 78.6329 0 169.64 0Z" fill="white"/>
<path d="M107.39 186.383C118.85 186.383 128.14 177.093 128.14 165.633C128.14 154.173 118.85 144.883 107.39 144.883C95.9305 144.883 86.6406 154.173 86.6406 165.633C86.6406 177.093 95.9305 186.383 107.39 186.383Z" fill="white"/>
<path d="M167.454 186.383C178.913 186.383 188.203 177.093 188.203 165.633C188.203 154.173 178.913 144.883 167.454 144.883C155.994 144.883 146.704 154.173 146.704 165.633C146.704 177.093 155.994 186.383 167.454 186.383Z" fill="white"/>
<path d="M227.155 186.383C238.615 186.383 247.904 177.093 247.904 165.633C247.904 154.173 238.615 144.883 227.155 144.883C215.695 144.883 206.405 154.173 206.405 165.633C206.405 177.093 215.695 186.383 227.155 186.383Z" fill="white"/>
</svg>
