<svg width="764" height="318" viewBox="0 0 764 318" fill="none" xmlns="http://www.w3.org/2000/svg">
<path d="M264.494 189.486V106.424H284.576V139.762H317.316V106.424H337.358V189.486H317.316V156.107H284.576V189.486H264.494Z" fill="#6588DE"/>
<path d="M379.084 190.662C372.565 190.662 366.94 189.378 362.207 186.809C357.5 184.213 353.876 180.523 351.334 175.737C348.818 170.924 347.561 165.205 347.561 158.581C347.561 152.146 348.832 146.522 351.374 141.709C353.917 136.869 357.5 133.111 362.125 130.434C366.75 127.73 372.2 126.378 378.475 126.378C382.911 126.378 386.968 127.068 390.646 128.446C394.324 129.825 397.502 131.867 400.18 134.571C402.857 137.275 404.94 140.614 406.428 144.588C407.915 148.536 408.659 153.065 408.659 158.175V163.123L367.115 163.651V151.929L390.2 151.605C390.173 149.496 389.672 147.617 388.699 145.967C387.725 144.318 386.386 143.034 384.682 142.114C383.005 141.168 381.071 140.695 378.881 140.695C376.663 140.695 374.675 141.195 372.917 142.196C371.159 143.169 369.766 144.507 368.738 146.211C367.71 147.887 367.17 149.793 367.115 151.929V163.651C367.115 166.192 367.616 168.423 368.617 170.343C369.617 172.235 371.037 173.709 372.876 174.763C374.716 175.818 376.906 176.345 379.449 176.345C381.207 176.345 382.802 176.102 384.236 175.615C385.669 175.128 386.9 174.412 387.928 173.466C388.956 172.519 389.726 171.357 390.24 169.978L408.456 170.505C407.699 174.588 406.035 178.143 403.466 181.172C400.924 184.173 397.583 186.512 393.445 188.188C389.307 189.837 384.52 190.662 379.084 190.662Z" fill="#6588DE"/>
<path d="M438.63 106.424V189.486H418.791V106.424H438.63Z" fill="#6588DE"/>
<path d="M471.096 106.424V189.486H451.257V106.424H471.096Z" fill="#6588DE"/>
<path d="M512.812 190.662C506.267 190.662 500.641 189.324 495.935 186.647C491.256 183.943 487.645 180.185 485.103 175.372C482.587 170.532 481.33 164.921 481.33 158.54C481.33 152.132 482.587 146.522 485.103 141.709C487.645 136.869 491.256 133.111 495.935 130.434C500.641 127.73 506.267 126.378 512.812 126.378C519.357 126.378 524.969 127.73 529.648 130.434C534.354 133.111 537.965 136.869 540.48 141.709C543.023 146.522 544.294 152.132 544.294 158.54C544.294 164.921 543.023 170.532 540.48 175.372C537.965 180.185 534.354 183.943 529.648 186.647C524.969 189.324 519.357 190.662 512.812 190.662ZM512.933 175.696C515.314 175.696 517.329 174.966 518.978 173.506C520.628 172.046 521.886 170.018 522.751 167.423C523.644 164.827 524.09 161.826 524.09 158.419C524.09 154.958 523.644 151.929 522.751 149.334C521.886 146.738 520.628 144.71 518.978 143.25C517.329 141.79 515.314 141.06 512.933 141.06C510.472 141.06 508.39 141.79 506.686 143.25C505.009 144.71 503.724 146.738 502.832 149.334C501.966 151.929 501.533 154.958 501.533 158.419C501.533 161.826 501.966 164.827 502.832 167.423C503.724 170.018 505.009 172.046 506.686 173.506C508.39 174.966 510.472 175.696 512.933 175.696Z" fill="#6588DE"/>
<path d="M564.315 189.486H551.008L580.908 106.424H595.392L625.292 189.486H611.985L588.495 121.511H587.846L564.315 189.486ZM575.575 156.959H600.744L604.388 167.504H571.925L575.575 156.959Z" fill="#52585D"/>
<path d="M636.316 212.847V127.189H648.163V137.288H649.177C649.88 135.99 650.895 134.49 652.22 132.786C653.545 131.083 655.384 129.596 657.737 128.325C660.09 127.027 663.201 126.378 667.068 126.378C672.099 126.378 676.589 127.649 680.537 130.19C684.486 132.732 687.583 136.396 689.828 141.182C692.1 145.967 693.236 151.727 693.236 158.459C693.236 165.192 692.113 170.965 689.869 175.777C687.624 180.563 684.54 184.254 680.619 186.85C676.697 189.418 672.221 190.703 667.19 190.703C663.404 190.703 660.307 190.067 657.9 188.796C655.519 187.526 653.653 186.039 652.301 184.335C650.949 182.632 649.907 181.118 649.177 179.793H648.447V212.847H636.316ZM648.203 158.338C648.203 162.718 648.839 166.557 650.11 169.856C651.381 173.155 653.221 175.737 655.628 177.603C658.035 179.441 660.983 180.36 664.472 180.36C668.096 180.36 671.125 179.401 673.559 177.481C675.994 175.534 677.833 172.898 679.077 169.572C680.348 166.246 680.984 162.501 680.984 158.338C680.984 154.228 680.362 150.537 679.118 147.265C677.9 143.994 676.061 141.411 673.6 139.519C671.166 137.626 668.123 136.68 664.472 136.68C660.956 136.68 657.981 137.585 655.547 139.397C653.139 141.209 651.314 143.737 650.07 146.981C648.825 150.226 648.203 154.011 648.203 158.338Z" fill="#52585D"/>
<path d="M706.827 212.847V127.189H718.673V137.288H719.687C720.391 135.99 721.405 134.49 722.73 132.786C724.055 131.083 725.895 129.596 728.248 128.325C730.601 127.027 733.711 126.378 737.579 126.378C742.609 126.378 747.099 127.649 751.048 130.19C754.997 132.732 758.093 136.396 760.338 141.182C762.61 145.967 763.746 151.727 763.746 158.459C763.746 165.192 762.624 170.965 760.379 175.777C758.134 180.563 755.051 184.254 751.129 186.85C747.207 189.418 742.731 190.703 737.7 190.703C733.914 190.703 730.817 190.067 728.41 188.796C726.03 187.526 724.164 186.039 722.811 184.335C721.459 182.632 720.418 181.118 719.687 179.793H718.957V212.847H706.827ZM718.714 158.338C718.714 162.718 719.349 166.557 720.62 169.856C721.892 173.155 723.731 175.737 726.138 177.603C728.545 179.441 731.493 180.36 734.982 180.36C738.606 180.36 741.636 179.401 744.07 177.481C746.504 175.534 748.343 172.898 749.587 169.572C750.859 166.246 751.494 162.501 751.494 158.338C751.494 154.228 750.872 150.537 749.628 147.265C748.411 143.994 746.572 141.411 744.11 139.519C741.676 137.626 738.633 136.68 734.982 136.68C731.466 136.68 728.491 137.585 726.057 139.397C723.65 141.209 721.824 143.737 720.58 146.981C719.336 150.226 718.714 154.011 718.714 158.338Z" fill="#52585D"/>
<path fill-rule="evenodd" clip-rule="evenodd" d="M162.977 0C214.738 0 260.552 22.7325 289.58 58.0554L253.558 57.7056C230.126 37.0715 197.951 24.4812 162.977 24.4812C90.2333 24.4812 31.1288 79.0392 31.1288 146.537C31.1288 163.674 34.9758 180.112 41.9704 194.8C46.5169 204.942 53.1618 214.735 60.5062 223.128C52.1126 244.112 42.6699 267.544 40.2218 273.839C34.6261 288.178 39.1726 284.331 48.965 280.834L60.1564 276.987L112.266 258.801C125.206 264.047 139.545 267.195 154.584 267.894C158.431 268.244 162.628 268.244 166.824 268.244C200.748 267.195 231.874 254.604 254.607 233.97H290.28C261.252 269.643 215.087 292.725 162.977 292.725C145.841 292.725 129.403 290.277 114.015 285.73L19.5876 316.856C-6.6422 323.501 1.05189 299.02 1.05189 299.02C1.05189 299.02 16.4401 258.801 29.7298 225.577C13.6422 202.844 4.5492 175.565 4.5492 146.537C4.5492 65.3997 75.5446 0 162.977 0Z" fill="url(#paint0_linear_2257_340)"/>
<path d="M103.174 179.062C114.184 179.062 123.109 170.137 123.109 159.127C123.109 148.118 114.184 139.193 103.174 139.193C92.1643 139.193 83.2393 148.118 83.2393 159.127C83.2393 170.137 92.1643 179.062 103.174 179.062Z" fill="url(#paint1_linear_2257_340)"/>
<path d="M160.879 179.062C171.889 179.062 180.814 170.137 180.814 159.127C180.814 148.118 171.889 139.193 160.879 139.193C149.869 139.193 140.944 148.118 140.944 159.127C140.944 170.137 149.869 179.062 160.879 179.062Z" fill="url(#paint2_linear_2257_340)"/>
<path d="M218.235 179.062C229.245 179.062 238.17 170.137 238.17 159.127C238.17 148.118 229.245 139.193 218.235 139.193C207.226 139.193 198.301 148.118 198.301 159.127C198.301 170.137 207.226 179.062 218.235 179.062Z" fill="url(#paint3_linear_2257_340)"/>
<defs>
<linearGradient id="paint0_linear_2257_340" x1="183.593" y1="-36.4414" x2="13.2187" y2="318.994" gradientUnits="userSpaceOnUse">
<stop stop-color="#6588DE"/>
<stop offset="1" stop-color="#3958A6"/>
</linearGradient>
<linearGradient id="paint1_linear_2257_340" x1="108.455" y1="134.624" x2="88.3297" y2="180.62" gradientUnits="userSpaceOnUse">
<stop stop-color="#6588DE"/>
<stop offset="1" stop-color="#3958A6"/>
</linearGradient>
<linearGradient id="paint2_linear_2257_340" x1="166.16" y1="134.624" x2="146.035" y2="180.62" gradientUnits="userSpaceOnUse">
<stop stop-color="#6588DE"/>
<stop offset="1" stop-color="#3958A6"/>
</linearGradient>
<linearGradient id="paint3_linear_2257_340" x1="223.517" y1="134.624" x2="203.391" y2="180.62" gradientUnits="userSpaceOnUse">
<stop stop-color="#6588DE"/>
<stop offset="1" stop-color="#3958A6"/>
</linearGradient>
</defs>
</svg>
