<svg width="35" height="35" viewBox="0 0 35 35" fill="none" xmlns="http://www.w3.org/2000/svg">
<mask id="mask0_7_920" style="mask-type:alpha" maskUnits="userSpaceOnUse" x="0" y="0" width="35" height="35">
<rect width="34.5274" height="34.5274" fill="#D9D9D9"/>
</mask>
<g mask="url(#mask0_7_920)">
<path d="M22.9191 15.9788C22.564 15.9788 22.2663 15.8617 22.0261 15.6274C21.7859 15.3932 21.6658 15.1029 21.6658 14.7566C21.6658 14.4103 21.7859 14.12 22.0261 13.8858C22.2663 13.6515 22.564 13.5344 22.9191 13.5344C23.2742 13.5344 23.5718 13.6515 23.812 13.8858C24.0522 14.12 24.1723 14.4103 24.1723 14.7566C24.1723 15.1029 24.0522 15.3932 23.812 15.6274C23.5718 15.8617 23.2742 15.9788 22.9191 15.9788ZM19.7859 12.9844L18.47 11.701C19.0757 11.1103 19.7598 10.6571 20.5222 10.3413C21.2846 10.0256 22.0836 9.86772 22.9191 9.86772C23.7546 9.86772 24.5535 10.0256 25.3159 10.3413C26.0783 10.6571 26.7624 11.1103 27.3681 11.701L26.0522 12.9844C25.6345 12.577 25.1593 12.2612 24.6266 12.0372C24.094 11.8131 23.5248 11.701 22.9191 11.701C22.3133 11.701 21.7441 11.8131 21.2115 12.0372C20.6789 12.2612 20.2037 12.577 19.7859 12.9844ZM17.154 10.3566L15.8381 9.07327C16.7781 8.15661 17.859 7.44873 19.0809 6.94966C20.3029 6.45059 21.5822 6.20105 22.9191 6.20105C24.2559 6.20105 25.5352 6.45059 26.7572 6.94966C27.9791 7.44873 29.0601 8.15661 30 9.07327L28.6841 10.3566C27.9112 9.6029 27.0287 9.02744 26.0366 8.63022C25.0444 8.23299 24.0052 8.03438 22.9191 8.03438C21.8329 8.03438 20.799 8.23809 19.8172 8.64549C18.8355 9.0529 17.9478 9.62327 17.154 10.3566ZM27.2428 28.201C24.5483 28.201 21.9217 27.6154 19.3629 26.4441C16.8042 25.2728 14.5379 23.7247 12.564 21.7997C10.5901 19.8747 9.00261 17.6645 7.80157 15.1691C6.60052 12.6737 6 10.1122 6 7.48438C6 7.11772 6.12533 6.81216 6.37598 6.56772C6.62663 6.32327 6.93995 6.20105 7.31593 6.20105H12.3916C12.6841 6.20105 12.9452 6.29272 13.1749 6.47605C13.4047 6.65938 13.5405 6.89364 13.5822 7.17883L14.3969 11.4566C14.4386 11.7418 14.4334 12.0015 14.3812 12.2358C14.329 12.47 14.2089 12.6788 14.0209 12.8622L11.0131 15.8566C11.8903 17.3233 12.9869 18.6983 14.3029 19.9816C15.6188 21.2649 17.0705 22.3751 18.658 23.3122L21.6031 20.4399C21.7911 20.2566 22.0366 20.1191 22.3394 20.0274C22.6423 19.9358 22.9399 19.9103 23.2324 19.951L27.5561 20.8066C27.8486 20.8677 28.0888 21.0052 28.2768 21.2191C28.4648 21.433 28.5587 21.6825 28.5587 21.9677V26.9177C28.5587 27.2844 28.4334 27.5899 28.1828 27.8344C27.9321 28.0788 27.6188 28.201 27.2428 28.201Z" fill="#888A92"/>
</g>
</svg>
