<svg width="31" height="28" viewBox="0 0 31 28" fill="none" xmlns="http://www.w3.org/2000/svg">
<path fill-rule="evenodd" clip-rule="evenodd" d="M29.5163 12.9731C29.5163 6.36727 23.2211 1 15.4711 1C7.69308 1 1.39792 6.36727 1.39792 12.9731C1.39792 15.3471 2.20929 17.5663 3.63619 19.45C2.4611 22.1594 1.09015 25.4365 1.09015 25.4365C1.09015 25.4365 0.418668 27.4493 2.74088 26.9074L11.1065 24.3528C12.4774 24.7398 13.9323 24.9463 15.4711 24.9463C23.2211 24.9463 29.5163 19.579 29.5163 12.9731ZM18.5116 22.591C19.7297 22.31 20.869 21.8664 21.8953 21.2895L18.5116 22.591ZM24.6285 19.1591C24.9471 18.818 25.2399 18.4589 25.5045 18.0838C25.2216 18.4584 24.9247 18.8199 24.6285 19.1591ZM27.1543 12.5223C27.1336 12.1255 27.0855 11.7347 27.0117 11.3512C27.0544 11.6572 27.0897 11.9632 27.125 12.2691C27.1347 12.3535 27.1444 12.4379 27.1543 12.5223Z" fill="#888A92"/>
<path d="M3.63619 19.45L4.09491 19.6489L4.21114 19.3809L4.03476 19.1481L3.63619 19.45ZM1.09015 25.4365L0.628888 25.2436L0.621725 25.2607L0.615851 25.2783L1.09015 25.4365ZM2.74088 26.9074L2.85451 27.3943L2.87085 27.3905L2.88691 27.3856L2.74088 26.9074ZM11.1065 24.3528L11.2423 23.8716L11.1009 23.8317L10.9604 23.8746L11.1065 24.3528ZM18.5116 22.591L18.3321 22.1243L18.624 23.0782L18.5116 22.591ZM21.8953 21.2895L22.1403 21.7254L21.7158 20.8229L21.8953 21.2895ZM24.6285 19.1591L24.2519 18.8302L24.994 19.5004L24.6285 19.1591ZM25.5045 18.0838L25.9131 18.3721L25.1056 17.7824L25.5045 18.0838ZM27.1543 12.5223L26.6577 12.5805L27.6536 12.4962L27.1543 12.5223ZM27.0117 11.3512L27.5027 11.2568L26.5165 11.4202L27.0117 11.3512ZM27.125 12.2691L27.6217 12.2118V12.2118L27.125 12.2691ZM15.4711 1.5C23.0228 1.5 29.0163 6.71526 29.0163 12.9731H30.0163C30.0163 6.01927 23.4195 0.5 15.4711 0.5V1.5ZM1.89792 12.9731C1.89792 6.71585 7.89073 1.5 15.4711 1.5V0.5C7.49542 0.5 0.897915 6.01868 0.897915 12.9731H1.89792ZM4.03476 19.1481C2.66798 17.3437 1.89792 15.229 1.89792 12.9731H0.897915C0.897915 15.4652 1.75061 17.7888 3.23763 19.7519L4.03476 19.1481ZM1.09015 25.4365C1.55142 25.6295 1.55142 25.6295 1.55143 25.6295C1.55144 25.6294 1.55145 25.6294 1.55147 25.6294C1.55152 25.6293 1.55158 25.6291 1.55166 25.6289C1.55182 25.6285 1.55207 25.6279 1.5524 25.6272C1.55306 25.6256 1.55404 25.6232 1.55535 25.6201C1.55797 25.6138 1.56188 25.6045 1.56703 25.5922C1.57734 25.5676 1.59261 25.5311 1.61248 25.4837C1.65221 25.389 1.7103 25.2505 1.78368 25.0758C1.93045 24.7266 2.1384 24.2326 2.38304 23.654C2.87241 22.4966 3.50825 21.0016 4.09491 19.6489L3.17748 19.251C2.58905 20.6078 1.95186 22.106 1.46199 23.2646C1.21701 23.844 1.00877 24.3386 0.861765 24.6885C0.788262 24.8634 0.730064 25.0021 0.690231 25.0971C0.670315 25.1446 0.65499 25.1812 0.644639 25.2059C0.639463 25.2183 0.635531 25.2277 0.632889 25.234C0.631569 25.2372 0.630571 25.2396 0.629902 25.2412C0.629568 25.242 0.629315 25.2426 0.629146 25.243C0.629061 25.2432 0.628997 25.2433 0.628954 25.2434C0.628933 25.2435 0.628916 25.2435 0.628905 25.2435C0.628894 25.2436 0.628888 25.2436 1.09015 25.4365ZM2.62726 26.4205C2.09613 26.5444 1.8243 26.4995 1.69952 26.4463C1.6014 26.4044 1.55464 26.3416 1.52603 26.2399C1.49202 26.1189 1.49421 25.9639 1.51613 25.8157C1.52645 25.746 1.53976 25.6868 1.5502 25.646C1.55537 25.6258 1.5597 25.6107 1.56238 25.6017C1.56371 25.5972 1.56462 25.5943 1.56501 25.5931C1.5652 25.5925 1.56526 25.5923 1.56517 25.5926C1.56513 25.5927 1.56504 25.593 1.56493 25.5933C1.56487 25.5935 1.5648 25.5937 1.56472 25.594C1.56468 25.5941 1.56461 25.5943 1.56459 25.5944C1.56452 25.5946 1.56445 25.5948 1.09015 25.4365C0.615851 25.2783 0.615774 25.2785 0.615695 25.2788C0.615665 25.2789 0.615584 25.2791 0.615524 25.2793C0.615405 25.2796 0.615275 25.28 0.615135 25.2805C0.614856 25.2813 0.614537 25.2823 0.614179 25.2834C0.613464 25.2856 0.612595 25.2883 0.611587 25.2915C0.609572 25.2978 0.606996 25.3062 0.60398 25.3163C0.597956 25.3365 0.590126 25.3641 0.581471 25.3979C0.564258 25.4651 0.543254 25.5589 0.526902 25.6694C0.495494 25.8816 0.47495 26.196 0.563343 26.5105C0.657136 26.8441 0.877922 27.1829 1.30703 27.366C1.70946 27.5378 2.22453 27.5413 2.85451 27.3943L2.62726 26.4205ZM10.9604 23.8746L2.59485 26.4292L2.88691 27.3856L11.2525 24.831L10.9604 23.8746ZM15.4711 24.4463C13.9775 24.4463 12.5684 24.246 11.2423 23.8716L10.9706 24.834C12.3864 25.2337 13.887 25.4463 15.4711 25.4463V24.4463ZM29.0163 12.9731C29.0163 19.231 23.0228 24.4463 15.4711 24.4463V25.4463C23.4195 25.4463 30.0163 19.927 30.0163 12.9731H29.0163ZM18.624 23.0782C19.8878 22.7867 21.0718 22.326 22.1403 21.7254L21.6503 20.8537C20.6662 21.4069 19.5717 21.8334 18.3993 22.1037L18.624 23.0782ZM21.7158 20.8229L18.3321 22.1243L18.6911 23.0576L22.0748 21.7562L21.7158 20.8229ZM24.994 19.5004C25.3277 19.1431 25.635 18.7662 25.9131 18.3721L25.096 17.7956C24.8449 18.1515 24.5665 18.493 24.2631 18.8178L24.994 19.5004ZM25.1056 17.7824C24.8306 18.1464 24.5413 18.4988 24.2519 18.8302L25.0052 19.4879C25.3081 19.141 25.6125 18.7703 25.9035 18.3852L25.1056 17.7824ZM27.6536 12.4962C27.6317 12.0763 27.5808 11.6626 27.5027 11.2568L26.5207 11.4457C26.5902 11.8068 26.6355 12.1748 26.655 12.5485L27.6536 12.4962ZM26.5165 11.4202C26.5582 11.7194 26.5928 12.0195 26.6283 12.3264L27.6217 12.2118C27.5865 11.9068 27.5505 11.595 27.5069 11.2822L26.5165 11.4202ZM26.6283 12.3264C26.638 12.4108 26.6478 12.4956 26.6577 12.5805L27.6509 12.4641C27.6411 12.3802 27.6314 12.2963 27.6217 12.2118L26.6283 12.3264Z" fill="#888A92"/>
<path d="M10.1558 15.6309C11.1292 15.6309 11.9184 14.9031 11.9184 14.0053C11.9184 13.1074 11.1292 12.3796 10.1558 12.3796C9.18228 12.3796 8.39312 13.1074 8.39312 14.0053C8.39312 14.9031 9.18228 15.6309 10.1558 15.6309Z" fill="#1B1B1C"/>
<path d="M15.2754 15.6309C16.2489 15.6309 17.0381 14.9031 17.0381 14.0053C17.0381 13.1074 16.2489 12.3796 15.2754 12.3796C14.3019 12.3796 13.5128 13.1074 13.5128 14.0053C13.5128 14.9031 14.3019 15.6309 15.2754 15.6309Z" fill="#1B1B1C"/>
<path d="M20.3677 15.6309C21.3412 15.6309 22.1303 14.9031 22.1303 14.0053C22.1303 13.1074 21.3412 12.3796 20.3677 12.3796C19.3942 12.3796 18.6051 13.1074 18.6051 14.0053C18.6051 14.9031 19.3942 15.6309 20.3677 15.6309Z" fill="#1B1B1C"/>
</svg>
