<svg width="29" height="29" viewBox="0 0 29 29" fill="none" xmlns="http://www.w3.org/2000/svg">
<mask id="mask0_24_226" style="mask-type:alpha" maskUnits="userSpaceOnUse" x="0" y="0" width="29" height="29">
<rect width="28.4529" height="28.4529" fill="#D9D9D9"/>
</mask>
<g mask="url(#mask0_24_226)">
<path d="M4.74193 27.2674V24.8963H23.7106V27.2674H4.74193ZM4.74193 3.55663V1.18555H23.7106V3.55663H4.74193ZM14.2262 15.412C15.2142 15.412 16.0539 15.0662 16.7455 14.3747C17.4371 13.6831 17.7829 12.8434 17.7829 11.8554C17.7829 10.8675 17.4371 10.0277 16.7455 9.33613C16.0539 8.64457 15.2142 8.29878 14.2262 8.29878C13.2383 8.29878 12.3985 8.64457 11.707 9.33613C11.0154 10.0277 10.6696 10.8675 10.6696 11.8554C10.6696 12.8434 11.0154 13.6831 11.707 14.3747C12.3985 15.0662 13.2383 15.412 14.2262 15.412ZM4.74193 23.7108C4.08988 23.7108 3.53169 23.4786 3.06735 23.0143C2.60302 22.55 2.37085 21.9918 2.37085 21.3397V7.11324C2.37085 6.4612 2.60302 5.90301 3.06735 5.43867C3.53169 4.97433 4.08988 4.74217 4.74193 4.74217H23.7106C24.3626 4.74217 24.9208 4.97433 25.3851 5.43867C25.8495 5.90301 26.0816 6.4612 26.0816 7.11324V21.3397C26.0816 21.9918 25.8495 22.55 25.3851 23.0143C24.9208 23.4786 24.3626 23.7108 23.7106 23.7108H4.74193ZM6.81662 21.3397H21.6359C20.7467 20.2332 19.6698 19.3638 18.4053 18.7315C17.1407 18.0992 15.7477 17.7831 14.2262 17.7831C12.7048 17.7831 11.3118 18.0992 10.0472 18.7315C8.78264 19.3638 7.70578 20.2332 6.81662 21.3397Z" fill="#7BA1FF"/>
</g>
</svg>
