<?xml version="1.0" encoding="UTF-8"?>
<!DOCTYPE svg PUBLIC "-//W3C//DTD SVG 1.1//EN" "http://www.w3.org/Graphics/SVG/1.1/DTD/svg11.dtd">
<!-- Creator: CorelDRAW X7 -->
<svg xmlns="http://www.w3.org/2000/svg" xml:space="preserve" width="1.54196in" height="1.40589in" version="1.1" style="shape-rendering:geometricPrecision; text-rendering:geometricPrecision; image-rendering:optimizeQuality; fill-rule:evenodd; clip-rule:evenodd"
viewBox="0 0 301 274"
 xmlns:xlink="http://www.w3.org/1999/xlink">
 <defs>
  <style type="text/css">
   <![CDATA[
    .fil0 {fill:#3958A6}
   ]]>
  </style>
 </defs>
 <g id="Layer_x0020_1">
  <metadata id="CorelCorpID_0Corel-Layer"/>
  <path class="fil0" d="M301 126c0,-69 -67,-126 -148,-126 -82,0 -149,57 -149,126 0,25 9,49 24,69 -13,28 -27,63 -27,63 0,0 -7,21 17,15l89 -27c14,4 29,7 46,7 81,0 148,-57 148,-127zm-97 28c11,0 19,-7 19,-17 0,-9 -8,-17 -19,-17 -10,0 -18,8 -18,17 0,10 8,17 18,17zm-53 0c10,0 18,-7 18,-17 0,-9 -8,-17 -18,-17 -11,0 -19,8 -19,17 0,10 8,17 19,17zm-54 0c10,0 18,-7 18,-17 0,-9 -8,-17 -18,-17 -11,0 -19,8 -19,17 0,10 8,17 19,17z"/>
 </g>
</svg>
