<svg width="34" height="34" viewBox="0 0 34 34" fill="none" xmlns="http://www.w3.org/2000/svg">
<mask id="mask0_7_981" style="mask-type:alpha" maskUnits="userSpaceOnUse" x="0" y="0" width="34" height="34">
<rect width="33.6178" height="33.6178" fill="#D9D9D9"/>
</mask>
<g mask="url(#mask0_7_981)">
<path d="M8.19432 23.9527C9.38495 23.0422 10.7157 22.3243 12.1864 21.799C13.6572 21.2737 15.198 21.0111 16.8089 21.0111C18.4197 21.0111 19.9606 21.2737 21.4313 21.799C22.9021 22.3243 24.2328 23.0422 25.4234 23.9527C26.2405 22.9955 26.8767 21.9099 27.332 20.6959C27.7872 19.482 28.0148 18.1863 28.0148 16.8089C28.0148 13.7039 26.9234 11.06 24.7406 8.87718C22.5578 6.69436 19.9139 5.60295 16.8089 5.60295C13.7039 5.60295 11.06 6.69436 8.87718 8.87718C6.69436 11.06 5.60295 13.7039 5.60295 16.8089C5.60295 18.1863 5.83057 19.482 6.28581 20.6959C6.74105 21.9099 7.37722 22.9955 8.19432 23.9527ZM16.8089 18.2096C15.4315 18.2096 14.27 17.7369 13.3245 16.7914C12.379 15.8459 11.9063 14.6844 11.9063 13.307C11.9063 11.9296 12.379 10.7682 13.3245 9.82269C14.27 8.87718 15.4315 8.40443 16.8089 8.40443C18.1863 8.40443 19.3477 8.87718 20.2932 9.82269C21.2387 10.7682 21.7115 11.9296 21.7115 13.307C21.7115 14.6844 21.2387 15.8459 20.2932 16.7914C19.3477 17.7369 18.1863 18.2096 16.8089 18.2096ZM16.8089 30.8163C14.8712 30.8163 13.0502 30.4486 11.346 29.7132C9.64176 28.9778 8.1593 27.9798 6.89864 26.7191C5.63797 25.4585 4.63994 23.976 3.90455 22.2718C3.16916 20.5675 2.80147 18.7466 2.80147 16.8089C2.80147 14.8712 3.16916 13.0502 3.90455 11.346C4.63994 9.64176 5.63797 8.1593 6.89864 6.89864C8.1593 5.63797 9.64176 4.63994 11.346 3.90455C13.0502 3.16916 14.8712 2.80147 16.8089 2.80147C18.7466 2.80147 20.5675 3.16916 22.2718 3.90455C23.976 4.63994 25.4585 5.63797 26.7191 6.89864C27.9798 8.1593 28.9778 9.64176 29.7132 11.346C30.4486 13.0502 30.8163 14.8712 30.8163 16.8089C30.8163 18.7466 30.4486 20.5675 29.7132 22.2718C28.9778 23.976 27.9798 25.4585 26.7191 26.7191C25.4585 27.9798 23.976 28.9778 22.2718 29.7132C20.5675 30.4486 18.7466 30.8163 16.8089 30.8163Z" fill="#888A92"/>
</g>
</svg>
